<?xml version="1.0" encoding="utf-8"?>
<!-- created with bpmn-js / http://bpmn.io -->
<!DOCTYPE svg PUBLIC "-//W3C//DTD SVG 1.1//EN" "http://www.w3.org/Graphics/SVG/1.1/DTD/svg11.dtd">
<svg xmlns="http://www.w3.org/2000/svg" xmlns:xlink="http://www.w3.org/1999/xlink" width="1693" height="552" viewBox="153 74 1693 552" version="1.1"><defs><marker id="sequenceflow-end-white-black-5g7resz3cai0adujvmxa243su" viewBox="0 0 20 20" refX="11" refY="10" markerWidth="10" markerHeight="10" orient="auto"><path d="M 1 5 L 11 10 L 1 15 Z" style="fill: black; stroke-width: 1px; stroke-linecap: round; stroke-dasharray: 10000px, 1px; stroke: black;"/></marker></defs><g class="djs-group"><g class="djs-element djs-connection" data-element-id="id35ff01df-c879-4907-ad4c-f656ccfdc292" style="display: block;"><g class="djs-visual"><path d="m  430,346L475,346 " style="fill: none; stroke-width: 2px; stroke: black; stroke-linejoin: round; marker-end: url('#sequenceflow-end-white-black-5g7resz3cai0adujvmxa243su');"/></g><polyline points="430,346 475,346 " class="djs-hit djs-hit-stroke" style="fill: none; stroke-opacity: 0; stroke: white; stroke-width: 15px;"/><rect x="424" y="340" width="57" height="12" class="djs-outline" style="fill: none;"/></g></g><g class="djs-group"><g class="djs-element djs-connection" data-element-id="id6abb8037-ed7c-40e6-ab51-a78bbe98fe96" style="display: block;"><g class="djs-visual"><path d="m  400,376L400,430 L470,430 " style="fill: none; stroke-width: 2px; stroke: black; stroke-linejoin: round; marker-end: url('#sequenceflow-end-white-black-5g7resz3cai0adujvmxa243su');"/></g><polyline points="400,376 400,430 470,430 " class="djs-hit djs-hit-stroke" style="fill: none; stroke-opacity: 0; stroke: white; stroke-width: 15px;"/><rect x="394" y="370" width="82" height="66" class="djs-outline" style="fill: none;"/></g></g><g class="djs-group"><g class="djs-element djs-connection" data-element-id="idaa1d0fe4-ecc9-4445-b3cb-f4449e4e4f5c" style="display: block;"><g class="djs-visual"><path d="m  696,346L720,346 " style="fill: none; stroke-width: 2px; stroke: black; stroke-linejoin: round; marker-end: url('#sequenceflow-end-white-black-5g7resz3cai0adujvmxa243su');"/></g><polyline points="696,346 720,346 " class="djs-hit djs-hit-stroke" style="fill: none; stroke-opacity: 0; stroke: white; stroke-width: 15px;"/><rect x="690" y="340" width="36" height="12" class="djs-outline" style="fill: none;"/></g></g><g class="djs-group"><g class="djs-element djs-connection" data-element-id="id767f0de1-e461-4a7a-b8d7-6f701d2601e1" style="display: block;"><g class="djs-visual"><path d="m  590,510L666,510 L666,376 " style="fill: none; stroke-width: 2px; stroke: black; stroke-linejoin: round; marker-end: url('#sequenceflow-end-white-black-5g7resz3cai0adujvmxa243su');"/></g><polyline points="590,510 666,510 666,376 " class="djs-hit djs-hit-stroke" style="fill: none; stroke-opacity: 0; stroke: white; stroke-width: 15px;"/><rect x="584" y="370" width="88" height="146" class="djs-outline" style="fill: none;"/></g></g><g class="djs-group"><g class="djs-element djs-connection" data-element-id="id19b33690-109b-4d7d-9146-c5277103c80a" style="display: block;"><g class="djs-visual"><path d="m  1290,346L1330,346 " style="fill: none; stroke-width: 2px; stroke: black; stroke-linejoin: round; marker-end: url('#sequenceflow-end-white-black-5g7resz3cai0adujvmxa243su');"/></g><polyline points="1290,346 1330,346 " class="djs-hit djs-hit-stroke" style="fill: none; stroke-opacity: 0; stroke: white; stroke-width: 15px;"/><rect x="1284" y="340" width="52" height="12" class="djs-outline" style="fill: none;"/></g></g><g class="djs-group"><g class="djs-element djs-connection" data-element-id="ida9c584b6-798c-4b8b-9f89-877dd76f785c" style="display: block;"><g class="djs-visual"><path d="m  342,346L370,346 " style="fill: none; stroke-width: 2px; stroke: black; stroke-linejoin: round; marker-end: url('#sequenceflow-end-white-black-5g7resz3cai0adujvmxa243su');"/></g><polyline points="342,346 370,346 " class="djs-hit djs-hit-stroke" style="fill: none; stroke-opacity: 0; stroke: white; stroke-width: 15px;"/><rect x="336" y="340" width="40" height="12" class="djs-outline" style="fill: none;"/></g></g><g class="djs-group"><g class="djs-element djs-connection" data-element-id="id5c25f354-ad81-4097-b78c-5ffba6c8daa0" style="display: block;"><g class="djs-visual"><path d="m  1150,346L1170,346 " style="fill: none; stroke-width: 2px; stroke: black; stroke-linejoin: round; marker-end: url('#sequenceflow-end-white-black-5g7resz3cai0adujvmxa243su');"/></g><polyline points="1150,346 1170,346 " class="djs-hit djs-hit-stroke" style="fill: none; stroke-opacity: 0; stroke: white; stroke-width: 15px;"/><rect x="1144" y="340" width="32" height="12" class="djs-outline" style="fill: none;"/></g></g><g class="djs-group"><g class="djs-element djs-connection" data-element-id="id5919e095-cae7-40b5-aa05-fdbe087a4307" style="display: block;"><g class="djs-visual"><path d="m  1060,415L1120,415 L1120,376 " style="fill: none; stroke-width: 2px; stroke: black; stroke-linejoin: round; marker-end: url('#sequenceflow-end-white-black-5g7resz3cai0adujvmxa243su');"/></g><polyline points="1060,415 1120,415 1120,376 " class="djs-hit djs-hit-stroke" style="fill: none; stroke-opacity: 0; stroke: white; stroke-width: 15px;"/><rect x="1054" y="370" width="72" height="51" class="djs-outline" style="fill: none;"/></g></g><g class="djs-group"><g class="djs-element djs-connection" data-element-id="idbac85e77-10f6-49bd-8623-dd150ed00d43" style="display: block;"><g class="djs-visual"><path d="m  590,590L666,590 L666,376 " style="fill: none; stroke-width: 2px; stroke: black; stroke-linejoin: round; marker-end: url('#sequenceflow-end-white-black-5g7resz3cai0adujvmxa243su');"/></g><polyline points="590,590 666,590 666,376 " class="djs-hit djs-hit-stroke" style="fill: none; stroke-opacity: 0; stroke: white; stroke-width: 15px;"/><rect x="584" y="370" width="88" height="226" class="djs-outline" style="fill: none;"/></g></g><g class="djs-group"><g class="djs-element djs-connection" data-element-id="id2ef2d18e-bc7d-41f3-84e0-c9da76bd2a25" style="display: block;"><g class="djs-visual"><path d="m  400,316L400,190 L478,190 " style="fill: none; stroke-width: 2px; stroke: black; stroke-linejoin: round; marker-end: url('#sequenceflow-end-white-black-5g7resz3cai0adujvmxa243su');"/></g><polyline points="400,316 400,190 478,190 " class="djs-hit djs-hit-stroke" style="fill: none; stroke-opacity: 0; stroke: white; stroke-width: 15px;"/><rect x="394" y="184" width="90" height="138" class="djs-outline" style="fill: none;"/></g></g><g class="djs-group"><g class="djs-element djs-connection" data-element-id="idaca38184-ec45-448a-944e-57e7c6469ae8" style="display: block;"><g class="djs-visual"><path d="m  400,376L400,510 L470,510 " style="fill: none; stroke-width: 2px; stroke: black; stroke-linejoin: round; marker-end: url('#sequenceflow-end-white-black-5g7resz3cai0adujvmxa243su');"/></g><polyline points="400,376 400,510 470,510 " class="djs-hit djs-hit-stroke" style="fill: none; stroke-opacity: 0; stroke: white; stroke-width: 15px;"/><rect x="394" y="370" width="82" height="146" class="djs-outline" style="fill: none;"/></g></g><g class="djs-group"><g class="djs-element djs-connection" data-element-id="id2247b258-193d-465e-8b8b-926e5faf358b" style="display: block;"><g class="djs-visual"><path d="m  900,376L900,415 L940,415 " style="fill: none; stroke-width: 2px; stroke: black; stroke-linejoin: round; marker-end: url('#sequenceflow-end-white-black-5g7resz3cai0adujvmxa243su');"/></g><polyline points="900,376 900,415 940,415 " class="djs-hit djs-hit-stroke" style="fill: none; stroke-opacity: 0; stroke: white; stroke-width: 15px;"/><rect x="894" y="370" width="52" height="51" class="djs-outline" style="fill: none;"/></g></g><g class="djs-group"><g class="djs-element djs-connection" data-element-id="idf4db08e6-afd8-47f9-92be-3ead45c815a2" style="display: block;"><g class="djs-visual"><path d="m  590,430L666,430 L666,376 " style="fill: none; stroke-width: 2px; stroke: black; stroke-linejoin: round; marker-end: url('#sequenceflow-end-white-black-5g7resz3cai0adujvmxa243su');"/></g><polyline points="590,430 666,430 666,376 " class="djs-hit djs-hit-stroke" style="fill: none; stroke-opacity: 0; stroke: white; stroke-width: 15px;"/><rect x="584" y="370" width="88" height="66" class="djs-outline" style="fill: none;"/></g></g><g class="djs-group"><g class="djs-element djs-connection" data-element-id="id335ae296-9b2d-4b37-8da4-71f6ab5a1340" style="display: block;"><g class="djs-visual"><path d="m  400,376L400,590 L470,590 " style="fill: none; stroke-width: 2px; stroke: black; stroke-linejoin: round; marker-end: url('#sequenceflow-end-white-black-5g7resz3cai0adujvmxa243su');"/></g><polyline points="400,376 400,590 470,590 " class="djs-hit djs-hit-stroke" style="fill: none; stroke-opacity: 0; stroke: white; stroke-width: 15px;"/><rect x="394" y="370" width="82" height="226" class="djs-outline" style="fill: none;"/></g></g><g class="djs-group"><g class="djs-element djs-connection" data-element-id="idf915cc01-4d48-49b0-8df1-3335d9b77834" style="display: block;"><g class="djs-visual"><path d="m  582,190L666,190 L666,316 " style="fill: none; stroke-width: 2px; stroke: black; stroke-linejoin: round; marker-end: url('#sequenceflow-end-white-black-5g7resz3cai0adujvmxa243su');"/></g><polyline points="582,190 666,190 666,316 " class="djs-hit djs-hit-stroke" style="fill: none; stroke-opacity: 0; stroke: white; stroke-width: 15px;"/><rect x="576" y="184" width="96" height="138" class="djs-outline" style="fill: none;"/></g></g><g class="djs-group"><g class="djs-element djs-connection" data-element-id="id756919aa-b3bb-486f-b84a-b35cbb88f05f" style="display: block;"><g class="djs-visual"><path d="m  584,346L636,346 " style="fill: none; stroke-width: 2px; stroke: black; stroke-linejoin: round; marker-end: url('#sequenceflow-end-white-black-5g7resz3cai0adujvmxa243su');"/></g><polyline points="584,346 636,346 " class="djs-hit djs-hit-stroke" style="fill: none; stroke-opacity: 0; stroke: white; stroke-width: 15px;"/><rect x="578" y="340" width="64" height="12" class="djs-outline" style="fill: none;"/></g></g><g class="djs-group"><g class="djs-element djs-connection" data-element-id="id94fb991f-d678-4ce2-9956-b74e2af265de" style="display: block;"><g class="djs-visual"><path d="m  400,316L400,270 L470,270 " style="fill: none; stroke-width: 2px; stroke: black; stroke-linejoin: round; marker-end: url('#sequenceflow-end-white-black-5g7resz3cai0adujvmxa243su');"/></g><polyline points="400,316 400,270 470,270 " class="djs-hit djs-hit-stroke" style="fill: none; stroke-opacity: 0; stroke: white; stroke-width: 15px;"/><rect x="394" y="264" width="82" height="58" class="djs-outline" style="fill: none;"/></g></g><g class="djs-group"><g class="djs-element djs-connection" data-element-id="id11574098-984c-472b-8b62-6cb18a71af78" style="display: block;"><g class="djs-visual"><path d="m  930,346L1090,346 " style="fill: none; stroke-width: 2px; stroke: black; stroke-linejoin: round; marker-end: url('#sequenceflow-end-white-black-5g7resz3cai0adujvmxa243su');"/></g><polyline points="930,346 1090,346 " class="djs-hit djs-hit-stroke" style="fill: none; stroke-opacity: 0; stroke: white; stroke-width: 15px;"/><rect x="924" y="340" width="172" height="12" class="djs-outline" style="fill: none;"/></g></g><g class="djs-group"><g class="djs-element djs-connection" data-element-id="ide701199d-c88a-4681-8b6e-cfedd695d7c4" style="display: block;"><g class="djs-visual"><path d="m  400,316L400,110 L470,110 " style="fill: none; stroke-width: 2px; stroke: black; stroke-linejoin: round; marker-end: url('#sequenceflow-end-white-black-5g7resz3cai0adujvmxa243su');"/></g><polyline points="400,316 400,110 470,110 " class="djs-hit djs-hit-stroke" style="fill: none; stroke-opacity: 0; stroke: white; stroke-width: 15px;"/><rect x="394" y="104" width="82" height="218" class="djs-outline" style="fill: none;"/></g></g><g class="djs-group"><g class="djs-element djs-connection" data-element-id="id67826350-1e73-488c-846d-a2b807aeb4db" style="display: block;"><g class="djs-visual"><path d="m  1450,346L1491,346 " style="fill: none; stroke-width: 2px; stroke: black; stroke-linejoin: round; marker-end: url('#sequenceflow-end-white-black-5g7resz3cai0adujvmxa243su');"/></g><polyline points="1450,346 1491,346 " class="djs-hit djs-hit-stroke" style="fill: none; stroke-opacity: 0; stroke: white; stroke-width: 15px;"/><rect x="1444" y="340" width="53" height="12" class="djs-outline" style="fill: none;"/></g></g><g class="djs-group"><g class="djs-element djs-connection" data-element-id="ide6d3b280-441e-4cf6-9ec9-9d05dce49418" style="display: block;"><g class="djs-visual"><path d="m  840,346L870,346 " style="fill: none; stroke-width: 2px; stroke: black; stroke-linejoin: round; marker-end: url('#sequenceflow-end-white-black-5g7resz3cai0adujvmxa243su');"/></g><polyline points="840,346 870,346 " class="djs-hit djs-hit-stroke" style="fill: none; stroke-opacity: 0; stroke: white; stroke-width: 15px;"/><rect x="834" y="340" width="42" height="12" class="djs-outline" style="fill: none;"/></g></g><g class="djs-group"><g class="djs-element djs-connection" data-element-id="idf0bb39a4-19f9-4b41-af23-44a18dee3e18" style="display: block;"><g class="djs-visual"><path d="m  219,346L238,346 " style="fill: none; stroke-width: 2px; stroke: black; stroke-linejoin: round; marker-end: url('#sequenceflow-end-white-black-5g7resz3cai0adujvmxa243su');"/></g><polyline points="219,346 238,346 " class="djs-hit djs-hit-stroke" style="fill: none; stroke-opacity: 0; stroke: white; stroke-width: 15px;"/><rect x="213" y="340" width="31" height="12" class="djs-outline" style="fill: none;"/></g></g><g class="djs-group"><g class="djs-element djs-connection" data-element-id="id13818dce-b9d1-484f-afee-821cf940aa26" style="display: block;"><g class="djs-visual"><path d="m  590,110L666,110 L666,316 " style="fill: none; stroke-width: 2px; stroke: black; stroke-linejoin: round; marker-end: url('#sequenceflow-end-white-black-5g7resz3cai0adujvmxa243su');"/></g><polyline points="590,110 666,110 666,316 " class="djs-hit djs-hit-stroke" style="fill: none; stroke-opacity: 0; stroke: white; stroke-width: 15px;"/><rect x="584" y="104" width="88" height="218" class="djs-outline" style="fill: none;"/></g></g><g class="djs-group"><g class="djs-element djs-connection" data-element-id="id0a8cbd26-0c76-4e73-a6c3-5e4c8e5fe365" style="display: block;"><g class="djs-visual"><path d="m  590,270L666,270 L666,316 " style="fill: none; stroke-width: 2px; stroke: black; stroke-linejoin: round; marker-end: url('#sequenceflow-end-white-black-5g7resz3cai0adujvmxa243su');"/></g><polyline points="590,270 666,270 666,316 " class="djs-hit djs-hit-stroke" style="fill: none; stroke-opacity: 0; stroke: white; stroke-width: 15px;"/><rect x="584" y="264" width="88" height="58" class="djs-outline" style="fill: none;"/></g></g><g class="djs-group"><g class="djs-element djs-connection" data-element-id="id7e5d6aa7-1fe0-40ff-a2bf-c498aa3d45bd" style="display: block;"><g class="djs-visual"><path d="m  1521,376L1521,415 L1555,415 " style="fill: none; stroke-width: 2px; stroke: black; stroke-linejoin: round; marker-end: url('#sequenceflow-end-white-black-5g7resz3cai0adujvmxa243su');"/></g><polyline points="1521,376 1521,415 1555,415 " class="djs-hit djs-hit-stroke" style="fill: none; stroke-opacity: 0; stroke: white; stroke-width: 15px;"/><rect x="1515" y="370" width="46" height="51" class="djs-outline" style="fill: none;"/></g></g><g class="djs-group"><g class="djs-element djs-connection" data-element-id="id6571fe8d-8dc0-4b04-8c27-1425c5a1cfc7" style="display: block;"><g class="djs-visual"><path d="m  1664,415L1710,415 L1710,376 " style="fill: none; stroke-width: 2px; stroke: black; stroke-linejoin: round; marker-end: url('#sequenceflow-end-white-black-5g7resz3cai0adujvmxa243su');"/></g><polyline points="1664,415 1710,415 1710,376 " class="djs-hit djs-hit-stroke" style="fill: none; stroke-opacity: 0; stroke: white; stroke-width: 15px;"/><rect x="1658" y="370" width="58" height="51" class="djs-outline" style="fill: none;"/></g></g><g class="djs-group"><g class="djs-element djs-connection" data-element-id="ida85e5bca-bb12-49f0-9163-ae95c9099c89" style="display: block;"><g class="djs-visual"><path d="m  1740,346L1780,346 " style="fill: none; stroke-width: 2px; stroke: black; stroke-linejoin: round; marker-end: url('#sequenceflow-end-white-black-5g7resz3cai0adujvmxa243su');"/></g><polyline points="1740,346 1780,346 " class="djs-hit djs-hit-stroke" style="fill: none; stroke-opacity: 0; stroke: white; stroke-width: 15px;"/><rect x="1734" y="340" width="52" height="12" class="djs-outline" style="fill: none;"/></g></g><g class="djs-group"><g class="djs-element djs-connection" data-element-id="id57d59fc6-2c83-417c-8fea-bf91ea1e33d1" style="display: block;"><g class="djs-visual"><path d="m  1551,346L1680,346 " style="fill: none; stroke-width: 2px; stroke: black; stroke-linejoin: round; marker-end: url('#sequenceflow-end-white-black-5g7resz3cai0adujvmxa243su');"/></g><polyline points="1551,346 1680,346 " class="djs-hit djs-hit-stroke" style="fill: none; stroke-opacity: 0; stroke: white; stroke-width: 15px;"/><rect x="1545" y="340" width="141" height="12" class="djs-outline" style="fill: none;"/></g></g><g class="djs-group"><g class="djs-element djs-shape" data-element-id="id9863e2fc-7385-4c8b-aaf7-f335e5f31973" transform="translate(159 316)" style="display: block;"><g class="djs-visual"><circle cx="30" cy="30" r="30" style="stroke: black; stroke-width: 2px; fill: white; fill-opacity: 0.95;"/></g><rect class="djs-hit djs-hit-all" x="0" y="0" width="60" height="60" style="fill: none; stroke-opacity: 0; stroke: white; stroke-width: 15px;"/><rect x="-6" y="-6" width="72" height="72" class="djs-outline" style="fill: none;"/></g></g><g class="djs-group"><g class="djs-element djs-shape" data-element-id="id9863e2fc-7385-4c8b-aaf7-f335e5f31973_label" transform="translate(178 376)" style="display: block;"><g class="djs-visual"><text lineHeight="1.2" class="djs-label" style="font-family: Arial, sans-serif; font-size: 11px; font-weight: normal; fill: black;"><tspan x="0" y="9.899999999999999">start</tspan></text></g><rect class="djs-hit djs-hit-all" x="0" y="0" width="22" height="14" style="fill: none; stroke-opacity: 0; stroke: white; stroke-width: 15px;"/><rect x="-6" y="-6" width="34" height="26" class="djs-outline" style="fill: none;"/></g></g><g class="djs-group"><g class="djs-element djs-shape" data-element-id="id383b6b62-e9f1-4e55-b870-be63282793d3" transform="translate(238 316)" style="display: block;"><g class="djs-visual"><rect x="0" y="0" width="104" height="60" rx="10" ry="10" style="stroke: black; stroke-width: 2px; fill: white; fill-opacity: 0.95;"/><text lineHeight="1.2" class="djs-label" style="font-family: Arial, sans-serif; font-size: 12px; font-weight: normal; fill: black;"><tspan x="13.984375" y="33.6">SRM: Created</tspan></text></g><rect class="djs-hit djs-hit-all" x="0" y="0" width="104" height="60" style="fill: none; stroke-opacity: 0; stroke: white; stroke-width: 15px;"/><rect x="-6" y="-6" width="116" height="72" class="djs-outline" style="fill: none;"/></g></g><g class="djs-group"><g class="djs-element djs-shape" data-element-id="idb2bd5533-e049-43e4-b3f3-1f55281c822c" transform="translate(370 316)" style="display: block;"><g class="djs-visual"><polygon points="30,0 60,30 30,60 0,30" style="stroke: black; stroke-width: 2px; fill: white; fill-opacity: 0.95;"/><path d="m 27.6,12 0,15 -15,0 0,6 15,0 0,15 6,0 0,-15 15,0 0,-6 -15,0 0,-15 -6,0 z" style="fill: black; stroke-width: 1px; stroke: black;"/></g><rect class="djs-hit djs-hit-all" x="0" y="0" width="60" height="60" style="fill: none; stroke-opacity: 0; stroke: white; stroke-width: 15px;"/><rect x="-6" y="-6" width="72" height="72" class="djs-outline" style="fill: none;"/></g></g><g class="djs-group"><g class="djs-element djs-shape" data-element-id="id11521634-9880-4646-a987-b25c52dd526d" transform="translate(475 316)" style="display: block;"><g class="djs-visual"><rect x="0" y="0" width="109" height="60" rx="10" ry="10" style="stroke: black; stroke-width: 2px; fill: white; fill-opacity: 0.95;"/><text lineHeight="1.2" class="djs-label" style="font-family: Arial, sans-serif; font-size: 12px; font-weight: normal; fill: black;"><tspan x="12.1484375" y="33.6">SRM: Complete</tspan></text></g><rect class="djs-hit djs-hit-all" x="0" y="0" width="109" height="60" style="fill: none; stroke-opacity: 0; stroke: white; stroke-width: 15px;"/><rect x="-6" y="-6" width="121" height="72" class="djs-outline" style="fill: none;"/></g></g><g class="djs-group"><g class="djs-element djs-shape" data-element-id="id7df3ad06-6334-4914-8dc0-22d525fb8696" transform="translate(470 400)" style="display: block;"><g class="djs-visual"><rect x="0" y="0" width="120" height="60" rx="10" ry="10" style="stroke: black; stroke-width: 2px; fill: white; fill-opacity: 0.95;"/><text lineHeight="1.2" class="djs-label" style="font-family: Arial, sans-serif; font-size: 12px; font-weight: normal; fill: black;"><tspan x="9.9765625" y="26.4">SRM: Change was </tspan><tspan x="28.3203125" y="40.8">Transmitted</tspan></text></g><rect class="djs-hit djs-hit-all" x="0" y="0" width="120" height="60" style="fill: none; stroke-opacity: 0; stroke: white; stroke-width: 15px;"/><rect x="-6" y="-6" width="132" height="72" class="djs-outline" style="fill: none;"/></g></g><g class="djs-group"><g class="djs-element djs-shape" data-element-id="id0e42dcb4-d18e-4d93-9b4d-dcaf185c6b2f" transform="translate(470 480)" style="display: block;"><g class="djs-visual"><rect x="0" y="0" width="120" height="60" rx="10" ry="10" style="stroke: black; stroke-width: 2px; fill: white; fill-opacity: 0.95;"/><text lineHeight="1.2" class="djs-label" style="font-family: Arial, sans-serif; font-size: 12px; font-weight: normal; fill: black;"><tspan x="14.9765625" y="26.4">Create Purchase </tspan><tspan x="31.3203125" y="40.8">Order Item</tspan></text></g><rect class="djs-hit djs-hit-all" x="0" y="0" width="120" height="60" style="fill: none; stroke-opacity: 0; stroke: white; stroke-width: 15px;"/><rect x="-6" y="-6" width="132" height="72" class="djs-outline" style="fill: none;"/></g></g><g class="djs-group"><g class="djs-element djs-shape" data-element-id="idbd7852e4-70c9-4fd4-8779-9af981f88310" transform="translate(470 560)" style="display: block;"><g class="djs-visual"><rect x="0" y="0" width="120" height="60" rx="10" ry="10" style="stroke: black; stroke-width: 2px; fill: white; fill-opacity: 0.95;"/><text lineHeight="1.2" class="djs-label" style="font-family: Arial, sans-serif; font-size: 12px; font-weight: normal; fill: black;"><tspan x="20.6484375" y="26.4">SRM: Awaiting </tspan><tspan x="36.3125" y="40.8">Approval</tspan></text></g><rect class="djs-hit djs-hit-all" x="0" y="0" width="120" height="60" style="fill: none; stroke-opacity: 0; stroke: white; stroke-width: 15px;"/><rect x="-6" y="-6" width="132" height="72" class="djs-outline" style="fill: none;"/></g></g><g class="djs-group"><g class="djs-element djs-shape" data-element-id="idf1585757-a3bc-44dd-b4c6-f7a2262a672c" transform="translate(470 240)" style="display: block;"><g class="djs-visual"><rect x="0" y="0" width="120" height="60" rx="10" ry="10" style="stroke: black; stroke-width: 2px; fill: white; fill-opacity: 0.95;"/><text lineHeight="1.2" class="djs-label" style="font-family: Arial, sans-serif; font-size: 12px; font-weight: normal; fill: black;"><tspan x="15.984375" y="26.4">SRM: Document </tspan><tspan x="30.984375" y="40.8">Completed</tspan></text></g><rect class="djs-hit djs-hit-all" x="0" y="0" width="120" height="60" style="fill: none; stroke-opacity: 0; stroke: white; stroke-width: 15px;"/><rect x="-6" y="-6" width="132" height="72" class="djs-outline" style="fill: none;"/></g></g><g class="djs-group"><g class="djs-element djs-shape" data-element-id="idde7eafea-6b0a-4c82-b59b-a7499e0006b6" transform="translate(478 160)" style="display: block;"><g class="djs-visual"><rect x="0" y="0" width="104" height="60" rx="10" ry="10" style="stroke: black; stroke-width: 2px; fill: white; fill-opacity: 0.95;"/><text lineHeight="1.2" class="djs-label" style="font-family: Arial, sans-serif; font-size: 12px; font-weight: normal; fill: black;"><tspan x="13.3203125" y="33.6">SRM: Ordered</tspan></text></g><rect class="djs-hit djs-hit-all" x="0" y="0" width="104" height="60" style="fill: none; stroke-opacity: 0; stroke: white; stroke-width: 15px;"/><rect x="-6" y="-6" width="116" height="72" class="djs-outline" style="fill: none;"/></g></g><g class="djs-group"><g class="djs-element djs-shape" data-element-id="idad7f3707-6ef4-45ca-a83f-3ad5d91da9cf" transform="translate(470 80)" style="display: block;"><g class="djs-visual"><rect x="0" y="0" width="120" height="60" rx="10" ry="10" style="stroke: black; stroke-width: 2px; fill: white; fill-opacity: 0.95;"/><text lineHeight="1.2" class="djs-label" style="font-family: Arial, sans-serif; font-size: 12px; font-weight: normal; fill: black;"><tspan x="7.6484375" y="26.4">SRM: In Transfer to </tspan><tspan x="18.640625" y="40.8">Execution Syst.</tspan></text></g><rect class="djs-hit djs-hit-all" x="0" y="0" width="120" height="60" style="fill: none; stroke-opacity: 0; stroke: white; stroke-width: 15px;"/><rect x="-6" y="-6" width="132" height="72" class="djs-outline" style="fill: none;"/></g></g><g class="djs-group"><g class="djs-element djs-shape" data-element-id="idedc17ce2-496b-4ee3-a2ff-7b3c7fe6cfdc" transform="translate(636 316)" style="display: block;"><g class="djs-visual"><polygon points="30,0 60,30 30,60 0,30" style="stroke: black; stroke-width: 2px; fill: white; fill-opacity: 0.95;"/><path d="m 27.6,12 0,15 -15,0 0,6 15,0 0,15 6,0 0,-15 15,0 0,-6 -15,0 0,-15 -6,0 z" style="fill: black; stroke-width: 1px; stroke: black;"/></g><rect class="djs-hit djs-hit-all" x="0" y="0" width="60" height="60" style="fill: none; stroke-opacity: 0; stroke: white; stroke-width: 15px;"/><rect x="-6" y="-6" width="72" height="72" class="djs-outline" style="fill: none;"/></g></g><g class="djs-group"><g class="djs-element djs-shape" data-element-id="ideac1d4f5-cd03-41e0-9f76-3b38d8e9b0a7" transform="translate(720 316)" style="display: block;"><g class="djs-visual"><rect x="0" y="0" width="120" height="60" rx="10" ry="10" style="stroke: black; stroke-width: 2px; fill: white; fill-opacity: 0.95;"/><text lineHeight="1.2" class="djs-label" style="font-family: Arial, sans-serif; font-size: 12px; font-weight: normal; fill: black;"><tspan x="19.3046875" y="26.4">Vendor creates </tspan><tspan x="41.3203125" y="40.8">invoice</tspan></text></g><rect class="djs-hit djs-hit-all" x="0" y="0" width="120" height="60" style="fill: none; stroke-opacity: 0; stroke: white; stroke-width: 15px;"/><rect x="-6" y="-6" width="132" height="72" class="djs-outline" style="fill: none;"/></g></g><g class="djs-group"><g class="djs-element djs-shape" data-element-id="id5c4bc24a-20a4-4c57-9b05-392e1e2baae9" transform="translate(870 316)" style="display: block;"><g class="djs-visual"><polygon points="30,0 60,30 30,60 0,30" style="stroke: black; stroke-width: 2px; fill: white; fill-opacity: 0.95;"/><path d="m 19.2,18 8.914285714285715,11.657142857142857 -8.914285714285715,11.657142857142857 4.114285714285714,0 6.857142857142858,-8.957074285714286 6.857142857142858,8.957074285714286 4.114285714285714,0 -8.914285714285715,-11.657142857142857 8.914285714285715,-11.657142857142857 -4.114285714285714,0 -6.857142857142858,8.957074285714286 -6.857142857142858,-8.957074285714286 -4.114285714285714,0 z" style="fill: black; stroke-width: 1px; stroke: black;"/></g><rect class="djs-hit djs-hit-all" x="0" y="0" width="60" height="60" style="fill: none; stroke-opacity: 0; stroke: white; stroke-width: 15px;"/><rect x="-6" y="-6" width="72" height="72" class="djs-outline" style="fill: none;"/></g></g><g class="djs-group"><g class="djs-element djs-shape" data-element-id="idb4c4430e-67ce-490d-9117-2cb4ed28f055" transform="translate(1491 316)" style="display: block;"><g class="djs-visual"><polygon points="30,0 60,30 30,60 0,30" style="stroke: black; stroke-width: 2px; fill: white; fill-opacity: 0.95;"/><path d="m 19.2,18 8.914285714285715,11.657142857142857 -8.914285714285715,11.657142857142857 4.114285714285714,0 6.857142857142858,-8.957074285714286 6.857142857142858,8.957074285714286 4.114285714285714,0 -8.914285714285715,-11.657142857142857 8.914285714285715,-11.657142857142857 -4.114285714285714,0 -6.857142857142858,8.957074285714286 -6.857142857142858,-8.957074285714286 -4.114285714285714,0 z" style="fill: black; stroke-width: 1px; stroke: black;"/></g><rect class="djs-hit djs-hit-all" x="0" y="0" width="60" height="60" style="fill: none; stroke-opacity: 0; stroke: white; stroke-width: 15px;"/><rect x="-6" y="-6" width="72" height="72" class="djs-outline" style="fill: none;"/></g></g><g class="djs-group"><g class="djs-element djs-shape" data-element-id="id8b132484-25dc-4804-887b-893e5d9c5f62" transform="translate(1555 385)" style="display: block;"><g class="djs-visual"><rect x="0" y="0" width="109" height="60" rx="10" ry="10" style="stroke: black; stroke-width: 2px; fill: white; fill-opacity: 0.95;"/><text lineHeight="1.2" class="djs-label" style="font-family: Arial, sans-serif; font-size: 12px; font-weight: normal; fill: black;"><tspan x="19.484375" y="33.6">Clear Invoice</tspan></text></g><rect class="djs-hit djs-hit-all" x="0" y="0" width="109" height="60" style="fill: none; stroke-opacity: 0; stroke: white; stroke-width: 15px;"/><rect x="-6" y="-6" width="121" height="72" class="djs-outline" style="fill: none;"/></g></g><g class="djs-group"><g class="djs-element djs-shape" data-element-id="id33e37d0f-a85d-4dfd-8287-84231321dda4" transform="translate(1680 316)" style="display: block;"><g class="djs-visual"><polygon points="30,0 60,30 30,60 0,30" style="stroke: black; stroke-width: 2px; fill: white; fill-opacity: 0.95;"/><path d="m 19.2,18 8.914285714285715,11.657142857142857 -8.914285714285715,11.657142857142857 4.114285714285714,0 6.857142857142858,-8.957074285714286 6.857142857142858,8.957074285714286 4.114285714285714,0 -8.914285714285715,-11.657142857142857 8.914285714285715,-11.657142857142857 -4.114285714285714,0 -6.857142857142858,8.957074285714286 -6.857142857142858,-8.957074285714286 -4.114285714285714,0 z" style="fill: black; stroke-width: 1px; stroke: black;"/></g><rect class="djs-hit djs-hit-all" x="0" y="0" width="60" height="60" style="fill: none; stroke-opacity: 0; stroke: white; stroke-width: 15px;"/><rect x="-6" y="-6" width="72" height="72" class="djs-outline" style="fill: none;"/></g></g><g class="djs-group"><g class="djs-element djs-shape" data-element-id="id3e55f3bd-92d9-4858-bdf5-ef318cb36ad6" transform="translate(1780 316)" style="display: block;"><g class="djs-visual"><circle cx="30" cy="30" r="30" style="stroke: black; stroke-width: 4px; fill: white; fill-opacity: 0.95;"/></g><rect class="djs-hit djs-hit-all" x="0" y="0" width="60" height="60" style="fill: none; stroke-opacity: 0; stroke: white; stroke-width: 15px;"/><rect x="-6" y="-6" width="72" height="72" class="djs-outline" style="fill: none;"/></g></g><g class="djs-group"><g class="djs-element djs-shape" data-element-id="id3e55f3bd-92d9-4858-bdf5-ef318cb36ad6_label" transform="translate(1801 376)" style="display: block;"><g class="djs-visual"><text lineHeight="1.2" class="djs-label" style="font-family: Arial, sans-serif; font-size: 11px; font-weight: normal; fill: black;"><tspan x="0" y="9.899999999999999">end</tspan></text></g><rect class="djs-hit djs-hit-all" x="0" y="0" width="19" height="14" style="fill: none; stroke-opacity: 0; stroke: white; stroke-width: 15px;"/><rect x="-6" y="-6" width="31" height="26" class="djs-outline" style="fill: none;"/></g></g><g class="djs-group"><g class="djs-element djs-shape" data-element-id="id6796bbbd-9cbb-4aae-9ef1-634d3459f024" transform="translate(940 385)" style="display: block;"><g class="djs-visual"><rect x="0" y="0" width="120" height="60" rx="10" ry="10" style="stroke: black; stroke-width: 2px; fill: white; fill-opacity: 0.95;"/><text lineHeight="1.2" class="djs-label" style="font-family: Arial, sans-serif; font-size: 12px; font-weight: normal; fill: black;"><tspan x="18.984375" y="26.4">Record Service </tspan><tspan x="28.6484375" y="40.8">Entry Sheet</tspan></text></g><rect class="djs-hit djs-hit-all" x="0" y="0" width="120" height="60" style="fill: none; stroke-opacity: 0; stroke: white; stroke-width: 15px;"/><rect x="-6" y="-6" width="132" height="72" class="djs-outline" style="fill: none;"/></g></g><g class="djs-group"><g class="djs-element djs-shape" data-element-id="id568476b9-5e75-406a-a075-f3797e8784a0" transform="translate(1090 316)" style="display: block;"><g class="djs-visual"><polygon points="30,0 60,30 30,60 0,30" style="stroke: black; stroke-width: 2px; fill: white; fill-opacity: 0.95;"/><path d="m 19.2,18 8.914285714285715,11.657142857142857 -8.914285714285715,11.657142857142857 4.114285714285714,0 6.857142857142858,-8.957074285714286 6.857142857142858,8.957074285714286 4.114285714285714,0 -8.914285714285715,-11.657142857142857 8.914285714285715,-11.657142857142857 -4.114285714285714,0 -6.857142857142858,8.957074285714286 -6.857142857142858,-8.957074285714286 -4.114285714285714,0 z" style="fill: black; stroke-width: 1px; stroke: black;"/></g><rect class="djs-hit djs-hit-all" x="0" y="0" width="60" height="60" style="fill: none; stroke-opacity: 0; stroke: white; stroke-width: 15px;"/><rect x="-6" y="-6" width="72" height="72" class="djs-outline" style="fill: none;"/></g></g><g class="djs-group"><g class="djs-element djs-shape" data-element-id="id1e493709-600d-4086-a9ba-1ffa7687299a" transform="translate(1170 316)" style="display: block;"><g class="djs-visual"><rect x="0" y="0" width="120" height="60" rx="10" ry="10" style="stroke: black; stroke-width: 2px; fill: white; fill-opacity: 0.95;"/><text lineHeight="1.2" class="djs-label" style="font-family: Arial, sans-serif; font-size: 12px; font-weight: normal; fill: black;"><tspan x="21.3125" y="26.4">Record Goods </tspan><tspan x="39.65625" y="40.8">Receipt</tspan></text></g><rect class="djs-hit djs-hit-all" x="0" y="0" width="120" height="60" style="fill: none; stroke-opacity: 0; stroke: white; stroke-width: 15px;"/><rect x="-6" y="-6" width="132" height="72" class="djs-outline" style="fill: none;"/></g></g><g class="djs-group"><g class="djs-element djs-shape" data-element-id="idf1601201-53ce-48eb-b5ea-26362f0b32d1" transform="translate(1330 316)" style="display: block;"><g class="djs-visual"><rect x="0" y="0" width="120" height="60" rx="10" ry="10" style="stroke: black; stroke-width: 2px; fill: white; fill-opacity: 0.95;"/><text lineHeight="1.2" class="djs-label" style="font-family: Arial, sans-serif; font-size: 12px; font-weight: normal; fill: black;"><tspan x="19.9765625" y="26.4">Record Invoice </tspan><tspan x="39.65625" y="40.8">Receipt</tspan></text></g><rect class="djs-hit djs-hit-all" x="0" y="0" width="120" height="60" style="fill: none; stroke-opacity: 0; stroke: white; stroke-width: 15px;"/><rect x="-6" y="-6" width="132" height="72" class="djs-outline" style="fill: none;"/></g></g></svg>